<?xml version="1.0" encoding="utf-8"?>
<!-- Generator: Adobe Illustrator 23.1.0, SVG Export Plug-In . SVG Version: 6.00 Build 0)  -->
<svg version="1.1" xmlns="http://www.w3.org/2000/svg" xmlns:xlink="http://www.w3.org/1999/xlink" x="0px" y="0px"
	 viewBox="0 0 1024 1024" style="enable-background:new 0 0 1024 1024;" xml:space="preserve">
	 <title>TianriNB</title>
<style type="text/css">
	.st0{opacity:0.18;fill:#140306;}
	.st1{fill:none;}
	.st2{fill:#49BDCD;}
	.st3{fill:#52C0DC;}
	.st4{fill:#3B9DBC;}
	.st5{fill:#70C4B1;}
	.st6{fill:#72BAB8;}
	.st7{fill:#BEE0C7;stroke:#BA6B88;stroke-miterlimit:10;}
	.st8{font-family:'VonwaonBitmap-16px';}
	.st9{font-size:212.6274px;}
</style>
<g id="_x32_">
	<path class="st0" d="M750.42,607H407.58c-12.47,0-22.58-10.11-22.58-22.58V241.58c0-12.47,10.11-22.58,22.58-22.58h342.84
		c12.47,0,22.58,10.11,22.58,22.58v342.84C773,596.89,762.89,607,750.42,607z"/>
	<path class="st0" d="M496.42,491H153.58c-12.47,0-22.58-10.11-22.58-22.58V125.58c0-12.47,10.11-22.58,22.58-22.58h342.84
		c12.47,0,22.58,10.11,22.58,22.58v342.84C519,480.89,508.89,491,496.42,491z"/>
	<rect x="30" y="21" class="st1" width="979" height="979"/>
</g>
<g id="_x31_">
	<path class="st2" d="M475.06,486H156.94c-20.4,0-36.94-16.54-36.94-36.94V130.94c0-20.4,16.54-36.94,36.94-36.94h318.12
		c20.4,0,36.94,16.54,36.94,36.94v318.12C512,469.46,495.46,486,475.06,486z"/>
	<path class="st3" d="M723.06,611H404.94c-20.4,0-36.94-16.54-36.94-36.94V255.94c0-20.4,16.54-36.94,36.94-36.94h318.12
		c20.4,0,36.94,16.54,36.94,36.94v318.12C760,594.46,743.46,611,723.06,611z"/>
	<path class="st0" d="M574.42,820H231.58c-12.47,0-22.58-10.11-22.58-22.58V454.58c0-12.47,10.11-22.58,22.58-22.58h342.84
		c12.47,0,22.58,10.11,22.58,22.58v342.84C597,809.89,586.89,820,574.42,820z"/>
	<path class="st4" d="M542.06,835H223.94c-20.4,0-36.94-16.54-36.94-36.94V479.94c0-20.4,16.54-36.94,36.94-36.94h318.12
		c20.4,0,36.94,16.54,36.94,36.94v318.12C579,818.46,562.46,835,542.06,835z"/>
	<path class="st0" d="M832.42,868H489.58c-12.47,0-22.58-10.11-22.58-22.58V502.58c0-12.47,10.11-22.58,22.58-22.58h342.84
		c12.47,0,22.58,10.11,22.58,22.58v342.84C855,857.89,844.89,868,832.42,868z"/>
	<path class="st5" d="M800.06,896H481.94c-20.4,0-36.94-16.54-36.94-36.94V540.94c0-20.4,16.54-36.94,36.94-36.94h318.12
		c20.4,0,36.94,16.54,36.94,36.94v318.12C837,879.46,820.46,896,800.06,896z"/>
	<path class="st0" d="M940.42,437H597.58c-12.47,0-22.58-10.11-22.58-22.58V71.58C575,59.11,585.11,49,597.58,49h342.84
		C952.89,49,963,59.11,963,71.58v342.84C963,426.89,952.89,437,940.42,437z"/>
	<path class="st6" d="M913.06,413H594.94c-20.4,0-36.94-16.54-36.94-36.94V57.94C558,37.54,574.54,21,594.94,21h318.12
		C933.46,21,950,37.54,950,57.94v318.12C950,396.46,933.46,413,913.06,413z"/>
	<text transform="matrix(0.8307 0 0 1 291.1162 413.4209)" class="st7 st8 st9">Tianri</text>
</g>
</svg>
